<svg xmlns="http://www.w3.org/2000/svg" xmlns:xlink="http://www.w3.org/1999/xlink" viewBox="0 0 76.13 100">
	<defs>
		<linearGradient id="a">
			<stop offset="0" stop-color="#acd135" />
			<stop offset="1" stop-color="#007b78" />
		</linearGradient>
		<linearGradient id="c" x1="13.604" x2="-.944" y1="3.96" y2="5.041" gradientTransform="scale(1.91759 .52149)" gradientUnits="userSpaceOnUse">
			<stop offset="0%" stop-color="#36473F" />
			<stop offset="100%" stop-color="#007B78" />
			<stop offset="100%" stop-color="#007B78" />
			<stop offset="100%" stop-color="#007B78" />
		</linearGradient>
		<linearGradient id="d" x1="11.684" x2="-.811" y1="2.771" y2="4.627" gradientTransform="scale(1.61245 .62017)" gradientUnits="userSpaceOnUse">
			<stop offset="0%" stop-color="#36473F" />
			<stop offset="100%" stop-color="#007B78" />
			<stop offset="100%" stop-color="#007B78" />
			<stop offset="100%" stop-color="#007B78" />
		</linearGradient>
		<linearGradient id="e" x1="16.032" x2="-1.112" y1="5.083" y2="5.743" gradientTransform="scale(2.2599 .4425)" gradientUnits="userSpaceOnUse">
			<stop offset="0%" stop-color="#36473F" />
			<stop offset="100%" stop-color="#007B78" />
			<stop offset="100%" stop-color="#007B78" />
			<stop offset="100%" stop-color="#007B78" />
		</linearGradient>
		<linearGradient id="f" x1="11.226" x2="-.779" y1="2.453" y2="4.545" gradientTransform="scale(1.5492 .6455)" gradientUnits="userSpaceOnUse">
			<stop offset="0%" stop-color="#36473F" />
			<stop offset="100%" stop-color="#007B78" />
			<stop offset="100%" stop-color="#007B78" />
			<stop offset="100%" stop-color="#007B78" />
		</linearGradient>
		<linearGradient xlink:href="#a" id="b" x1="39.732" x2="39.732" y1="24.144" y2="81.492" gradientTransform="matrix(1.00505 0 0 1.00175 -.316 -.042)" gradientUnits="userSpaceOnUse" />
	</defs>
	<path
		fill="url(#b)"
		d="M28.344 80.834c-.392-.682-.478-1.775-1.13-1.768-.478.653-1.045.924-1.285.426-.57.31-1.716.15-.88-.438.973-1.036-1.52-.978-.92-1.972.635-.807 1.105-.786 1.694-.77 2.042 1.019 1.222-2.3.81-3.336-.877-2.177 1.241-2.416 2.78-3.098 1.107-.545.903-3.875.356-1.918-.027.67-1.742 2.335-2.28 1.685-.984-.22-1.207-.213-2.333-.652-.06-.789-2.355-.819-1.474-2.049-.495-.742-1.2-2.522-.31-3.78.537-1.762 1.844-3.557 1.343-5.478-.412-1.324.532-3.034.54-4.537.566-1.587-.793-2.884-1.01-4.38.219-1.098.908-2.39-.614-3.281-1.613-1.675 1.276.189 1.684-1.441.444-.283 1.21-.688 1.675-1.1.113-.813.71-1.665-.34-2.075-.36-.245.389-1.252.373-1.68 1.242.56 1.266-.815.197-1.248-.002-1.067-.077-1.593 1.211-.688 1.259-.732 1.022 1.168 2.253.916.145-.797 2.511.312 1.49-1.01-1.482.054-.153-.42-.577-1.121 1.078.353 1.22-.868 1.676-1.043.516-.27.842-.049.967-.99 1.446-.286.524-1.304-.26-2.003-.9.17-1.545-.554-1.487-1.307-.17-.883.295-2.476-.764-2.821-.79-.942 1.536-2.324.151-2.721-1.102.5-.325-.294.031-.798.411-.893 1.69.574 2.253-.279 1.341.146.8 1.195 2 1.915.138.91 1.105.833 1.347 1.267.379 1.431 2.07.75 1.922 2.155-.378 1.684 1.214 1.319 2.21 1.445.693.229 1.13.7 1.589 1.454.656.483.999.444 1.683.493.53.241 1.393-1.557 1.212-.28 1.087-.356-.075.593 1 .277.381.292 1.03.764 1.774.74.646-.002 1.337.434 1.994.058.56.397 1.271-.682 1.317.384.573.618 1.07 1.376 1.731 1.696.367.057.63 1.1.969 1.598.418.706 1.447.303.754 1.265-.687-.48-1.028.934-1.866.066-.548-.157-.122.94-.945.57-.03.892 1.382 1.35.54 2.073-.395-.254-.692.698-1.36.288-.921.56-1.432-1.012-1.913-.51-.71-.04-1.008.97-1.739.35-.89-1.439-1.298.194-.013.695.781.495.458 1.61 1.473 1.756.867-.017 1.24 1.12 1.922.903.503-.77 1.703-.57 1.21.503-.1 1.207-1.04 1.478-.76 2.743-.709.575-.458 2.06-1.802 1.813-1.263.43-.333 1.114.321 1.524.648.687 1.755 1.355 1.647 2.219-.444.472.085 1.265-.788 1.805.908.208.863.534.31 1.01-1.054.05-2.484-.013-.845.67-.828.54-.776.171-1.701.397-1.076.87-2.088.494-2.06-1.023-2.196-1.15-1.097.536-1.924-.076-.687.617-3.007.226-2.36 1.646 1.348.84-.088 1.953-.865 2.562-.04.856-1.232 2.363.348 2.41-.295.49-2.985.061-3.586 1.042-.618.369-.617.462-1.125 1.084-.394-.91-1.01-.137-1.286.373-.326.724.371 1.356.008 2.076-.13.412.286 1.852-.588 1.676-1.053.246-1.724.587-1.867 1.718-.05.894-.028 1.184.079 2.223-.345.466-.979.108-1.538.825.157 1.454-.009-1.546-.603-.353-.732.184-.7 1.795.056 1.185.844-.16.994 1.139 1.634.906.75-.067.46 1.468 1.428 1.157-.335 1.077.393 1.785-1.075 2.14-.636 1.099-1.233 1.33-1.762 1.44-.707-.224-1.18.035-1.889.177-.416-.741-1.646-.581-1.616.03-.217-.198-.277.265-.422.195z"
		opacity=".75"
		transform="matrix(1.01331 0 0 1.00351 -.409 -.084)"
	/>
	<g fill="none" fill-rule="evenodd">
		<g transform="translate(10 60)">
			<rect width="18" height="4.895" fill="url(#c)" rx="1" />
			<path
				fill="#fff"
				fill-rule="nonzero"
				d="M3.9 3.083V2.8h-.657V1.56h-.307v1.523zm.744.025a.607.607 0 0 0 .526-.296.583.583 0 0 0 .08-.302.595.595 0 0 0-.605-.595.608.608 0 0 0-.304.079.59.59 0 0 0-.298.517.59.59 0 0 0 .297.518c.092.053.193.08.304.08zm.002-.286a.274.274 0 0 1-.21-.088.312.312 0 0 1-.081-.221.32.32 0 0 1 .082-.225.272.272 0 0 1 .209-.09c.083 0 .153.03.208.09.055.06.083.136.083.225a.31.31 0 0 1-.083.221.274.274 0 0 1-.208.088zm1.353.288a.533.533 0 0 0 .263-.065.471.471 0 0 0 .186-.186.563.563 0 0 0 .067-.28V1.94h-.307v.665c0 .066-.02.12-.06.16-.04.04-.09.06-.15.06a.208.208 0 0 1-.153-.06.215.215 0 0 1-.06-.16V1.94h-.307v.64a.56.56 0 0 0 .067.279.47.47 0 0 0 .187.186c.08.044.168.065.267.065zm1.357.416a.603.603 0 0 0 .423-.146c.106-.096.16-.238.16-.424V1.94h-.283v.144a.39.39 0 0 0-.153-.125.504.504 0 0 0-.215-.044.543.543 0 0 0-.275.07.503.503 0 0 0-.193.199.605.605 0 0 0-.07.296c0 .111.022.21.068.296.047.086.11.153.193.2a.54.54 0 0 0 .277.072.524.524 0 0 0 .194-.034.397.397 0 0 0 .15-.102v.062c0 .09-.028.157-.083.202a.33.33 0 0 1-.218.068.455.455 0 0 1-.187-.038.901.901 0 0 1-.179-.11l-.161.218c.156.141.34.212.552.212Zm-.004-.74a.281.281 0 0 1-.207-.085.301.301 0 0 1-.084-.223c0-.092.027-.165.083-.218a.289.289 0 0 1 .208-.08c.078 0 .145.025.2.074.056.05.084.123.084.222a.302.302 0 0 1-.084.228.279.279 0 0 1-.2.081zm1.198.297v-.665a.206.206 0 0 1 .214-.222c.062 0 .112.021.15.062.04.04.059.094.059.16v.665h.304v-.709a.478.478 0 0 0-.113-.333.39.39 0 0 0-.305-.126c-.062 0-.12.01-.173.032a.4.4 0 0 0-.136.09v-.685h-.307v1.73zm2.171 0a.9.9 0 0 0 .425-.098.718.718 0 0 0 .29-.273.76.76 0 0 0 .104-.395.702.702 0 0 0-.393-.662.927.927 0 0 0-.426-.095h-.49v1.523zM10.72 2.8h-.182v-.96h.182a.52.52 0 0 1 .367.127.45.45 0 0 1 .138.349.502.502 0 0 1-.063.255.427.427 0 0 1-.177.17.564.564 0 0 1-.265.06zm1.612.31a.675.675 0 0 0 .45-.171l-.127-.213a.502.502 0 0 1-.314.116.347.347 0 0 1-.206-.06.281.281 0 0 1-.11-.166h.789a.75.75 0 0 0 .02-.171.546.546 0 0 0-.067-.269.497.497 0 0 0-.187-.192.535.535 0 0 0-.275-.07.585.585 0 0 0-.512.294.608.608 0 0 0-.077.304c0 .11.026.212.08.303a.57.57 0 0 0 .22.216c.094.052.2.078.316.078zm.205-.714h-.512a.307.307 0 0 1 .098-.168.254.254 0 0 1 .17-.062c.067 0 .124.02.17.062a.22.22 0 0 1 .074.168zm.843.686v-.57c0-.099.027-.173.082-.223a.314.314 0 0 1 .22-.075h.082V1.94a.385.385 0 0 0-.41.136V1.94h-.28v1.143Zm1.123.443a.603.603 0 0 0 .423-.146c.106-.096.16-.238.16-.424V1.94h-.283v.144a.39.39 0 0 0-.153-.125.504.504 0 0 0-.215-.044.543.543 0 0 0-.275.07.503.503 0 0 0-.193.199.605.605 0 0 0-.07.296c0 .111.022.21.069.296.046.086.11.153.192.2a.54.54 0 0 0 .277.072.524.524 0 0 0 .195-.034.397.397 0 0 0 .148-.102v.062c0 .09-.027.157-.081.202a.33.33 0 0 1-.219.068.455.455 0 0 1-.187-.038.901.901 0 0 1-.179-.11l-.161.218c.156.141.34.212.552.212zm-.004-.74a.281.281 0 0 1-.207-.085.301.301 0 0 1-.084-.223c0-.092.027-.165.083-.218a.289.289 0 0 1 .208-.08c.079 0 .146.025.201.074.055.05.083.123.083.222a.302.302 0 0 1-.084.228.279.279 0 0 1-.2.081z"
			/>
		</g>
		<g transform="translate(21 48)">
			<rect width="13" height="5" fill="url(#d)" rx="1" />
			<path
				fill="#fff"
				fill-rule="nonzero"
				d="m2.892 3.413.079-.198h.577l.079.198h.31l-.629-1.55h-.096l-.63 1.55Zm.555-.454h-.376l.188-.515Zm1.144.482c.064 0 .13-.01.198-.028v-.26c-.074.006-.12.009-.136.009-.069 0-.119-.014-.15-.04-.031-.027-.047-.073-.047-.138v-.45h.3v-.263h-.3v-.288h-.289v.288h-.166v.263h.166v.478c0 .143.038.25.112.322a.43.43 0 0 0 .312.107zm.696-.028V2.75c0-.066.02-.12.057-.16a.188.188 0 0 1 .144-.062c.059 0 .106.02.142.061a.23.23 0 0 1 .055.16v.665h.286v-.708a.498.498 0 0 0-.107-.333.357.357 0 0 0-.286-.126.405.405 0 0 0-.163.032.375.375 0 0 0-.128.09v-.685H5v1.73zm1.25 0v-1.73H6.25v1.73zm.791.026a.572.572 0 0 0 .495-.297.612.612 0 0 0 .076-.3.606.606 0 0 0-.282-.517.539.539 0 0 0-.287-.08.559.559 0 0 0-.492.294.62.62 0 0 0-.074.302c0 .11.025.21.075.301a.57.57 0 0 0 .204.217c.086.053.181.08.285.08zm.002-.286a.25.25 0 0 1-.196-.088.324.324 0 0 1-.077-.222.33.33 0 0 1 .077-.225.248.248 0 0 1 .196-.088c.079 0 .144.03.196.09a.33.33 0 0 1 .078.223.32.32 0 0 1-.078.222.25.25 0 0 1-.196.088zm1.082.26v-.666c0-.067.018-.12.056-.16a.188.188 0 0 1 .144-.062c.059 0 .106.02.143.061.036.04.054.094.054.16v.667h.286v-.708a.498.498 0 0 0-.106-.333.361.361 0 0 0-.291-.126.435.435 0 0 0-.174.034.397.397 0 0 0-.136.095v-.104h-.265v1.142zm1.48.028a.613.613 0 0 0 .424-.17l-.12-.213a.455.455 0 0 1-.295.115.312.312 0 0 1-.193-.058.283.283 0 0 1-.104-.168h.742a.796.796 0 0 0 .019-.17.574.574 0 0 0-.063-.27.484.484 0 0 0-.435-.261.525.525 0 0 0-.281.078.55.55 0 0 0-.2.216.639.639 0 0 0-.073.303c0 .111.025.212.075.304a.554.554 0 0 0 .504.294Zm.193-.713h-.481a.312.312 0 0 1 .092-.168.23.23 0 0 1 .16-.063c.063 0 .116.021.16.063a.227.227 0 0 1 .069.168z"
			/>
		</g>
		<g transform="translate(21 28)">
			<rect width="25" height="4.895" fill="url(#e)" rx="1" />
			<path
				fill="#fff"
				fill-rule="nonzero"
				d="M3.074 3.318a.695.695 0 0 0 .625-.379l-.218-.166c-.1.17-.235.256-.405.256a.441.441 0 0 1-.398-.24.551.551 0 0 1-.059-.258.55.55 0 0 1 .06-.26.435.435 0 0 1 .397-.243c.17 0 .305.085.405.256l.218-.166a.686.686 0 0 0-.624-.378.724.724 0 0 0-.38.103.753.753 0 0 0-.273.285.81.81 0 0 0-.1.4c0 .147.033.28.1.4a.724.724 0 0 0 .652.389zm1.152 0a.444.444 0 0 0 .184-.037.411.411 0 0 0 .14-.102v.111h.266v-.678c0-.159-.041-.28-.123-.364a.442.442 0 0 0-.332-.126.565.565 0 0 0-.462.236l.15.191a.58.58 0 0 1 .135-.119.28.28 0 0 1 .145-.038c.065 0 .114.018.147.053.034.036.05.085.05.148v.05h-.265c-.123 0-.22.03-.293.09a.298.298 0 0 0-.108.243c0 .1.033.182.099.246a.368.368 0 0 0 .267.096zm.078-.229a.171.171 0 0 1-.11-.033.11.11 0 0 1-.043-.091c0-.039.013-.068.039-.087a.18.18 0 0 1 .11-.029h.226v.014a.219.219 0 0 1-.222.226zm1.08.201v-.57c0-.098.025-.173.077-.223a.285.285 0 0 1 .208-.075h.077v-.274a.346.346 0 0 0-.257.025.38.38 0 0 0-.129.11v-.135h-.266V3.29Zm.831 0v-.57c0-.098.026-.173.077-.223a.285.285 0 0 1 .208-.075h.077v-.274a.346.346 0 0 0-.257.025.38.38 0 0 0-.129.11v-.135h-.265V3.29Zm.686-1.366a.178.178 0 0 0 .131-.056.186.186 0 0 0 .055-.136.19.19 0 0 0-.186-.194.175.175 0 0 0-.131.056.191.191 0 0 0-.054.138c0 .054.018.1.054.136.036.037.08.056.13.056zm.145 1.366V2.148h-.289V3.29Zm.795.028a.496.496 0 0 0 .274-.076.538.538 0 0 0 .187-.208l-.201-.166a.438.438 0 0 1-.113.12.242.242 0 0 1-.142.044.255.255 0 0 1-.2-.09.328.328 0 0 1-.079-.224c0-.09.026-.164.078-.223a.255.255 0 0 1 .2-.089c.056 0 .105.015.145.044.041.03.078.07.11.122l.202-.168a.5.5 0 0 0-.46-.282c-.105 0-.2.026-.287.079a.572.572 0 0 0-.205.214.61.61 0 0 0-.076.303.611.611 0 0 0 .281.52c.087.053.182.08.286.08zm.965-.028v-.632l.426.632h.33l-.43-.637.398-.505h-.343l-.381.487V1.559h-.29V3.29Zm1.403-.61v-.26h-.54v.26zm.928.638a.72.72 0 0 0 .378-.104.761.761 0 0 0 .275-.285.803.803 0 0 0 .101-.4.803.803 0 0 0-.101-.4.761.761 0 0 0-.275-.286.72.72 0 0 0-.378-.104.714.714 0 0 0-.377.104.756.756 0 0 0-.272.285.81.81 0 0 0-.1.4c0 .147.033.28.1.4a.749.749 0 0 0 .272.286c.114.07.24.104.377.104zm.002-.289a.436.436 0 0 1-.395-.24.559.559 0 0 1-.059-.26c0-.097.02-.184.059-.26a.436.436 0 0 1 .395-.241.431.431 0 0 1 .396.243.556.556 0 0 1 .059.257.55.55 0 0 1-.06.26.439.439 0 0 1-.395.241zm1.267.261v-.667c0-.066.019-.12.057-.16a.189.189 0 0 1 .144-.061c.059 0 .106.02.143.06a.236.236 0 0 1 .054.161v.667h.287v-.708a.497.497 0 0 0-.107-.334.363.363 0 0 0-.291-.126.437.437 0 0 0-.175.035.398.398 0 0 0-.136.095v-.104h-.266V3.29Zm1.457-.61v-.26h-.54v.26Zm.707.638a.567.567 0 0 0 .254-.056.423.423 0 0 0 .241-.401.388.388 0 0 0-.086-.258.776.776 0 0 0-.263-.188l-.161-.076a.528.528 0 0 1-.127-.08.126.126 0 0 1-.038-.095.13.13 0 0 1 .05-.11.202.202 0 0 1 .126-.038c.107 0 .197.059.27.176l.197-.164a.5.5 0 0 0-.467-.288.533.533 0 0 0-.24.052.406.406 0 0 0-.23.379c0 .101.03.187.09.256.06.07.145.13.253.182l.152.074a.684.684 0 0 1 .14.087c.027.023.04.058.04.102a.153.153 0 0 1-.053.124.223.223 0 0 1-.148.045.323.323 0 0 1-.197-.06.648.648 0 0 1-.15-.162l-.2.162a.64.64 0 0 0 .224.246c.095.06.203.09.323.09zm1.02-.028v-.665c0-.066.019-.12.057-.16a.189.189 0 0 1 .144-.061c.059 0 .107.02.143.061.036.04.055.094.055.16v.665h.287v-.708a.497.497 0 0 0-.107-.334.358.358 0 0 0-.288-.126.407.407 0 0 0-.162.033.376.376 0 0 0-.129.09v-.686h-.29V3.29Zm1.264.028a.444.444 0 0 0 .183-.037.411.411 0 0 0 .14-.102v.111h.267v-.678c0-.159-.041-.28-.124-.364a.442.442 0 0 0-.33-.126.565.565 0 0 0-.464.236l.15.191a.58.58 0 0 1 .135-.119.28.28 0 0 1 .146-.038c.064 0 .113.018.147.053a.21.21 0 0 1 .05.148v.05h-.265c-.123 0-.22.03-.293.09a.298.298 0 0 0-.108.243c0 .1.033.182.098.246a.368.368 0 0 0 .268.096zm.077-.229a.171.171 0 0 1-.11-.033.11.11 0 0 1-.042-.091c0-.039.013-.068.039-.087a.18.18 0 0 1 .11-.029h.226v.014a.219.219 0 0 1-.223.226zm1.08.201v-.667c0-.066.02-.12.057-.16a.189.189 0 0 1 .145-.061c.058 0 .106.02.142.06a.231.231 0 0 1 .055.161v.667h.287v-.708a.497.497 0 0 0-.107-.334.363.363 0 0 0-.291-.126.437.437 0 0 0-.175.035.398.398 0 0 0-.136.095v-.104h-.266V3.29Zm1.254 0v-.667c0-.066.019-.12.057-.16a.189.189 0 0 1 .144-.061c.059 0 .107.02.143.06a.236.236 0 0 1 .055.161v.667h.287v-.708a.497.497 0 0 0-.107-.334.363.363 0 0 0-.292-.126.437.437 0 0 0-.174.035.398.398 0 0 0-.137.095v-.104h-.265V3.29Zm1.47.025a.573.573 0 0 0 .496-.297.611.611 0 0 0 .076-.3.605.605 0 0 0-.283-.516.542.542 0 0 0-.287-.08.548.548 0 0 0-.493.295.618.618 0 0 0-.075.3c0 .11.025.21.075.302a.57.57 0 0 0 .205.217c.086.053.182.08.286.08zm.002-.286a.25.25 0 0 1-.197-.087.323.323 0 0 1-.077-.222.33.33 0 0 1 .077-.225.25.25 0 0 1 .197-.089c.079 0 .144.03.196.09a.33.33 0 0 1 .078.224.32.32 0 0 1-.078.222.252.252 0 0 1-.196.087Zm1.084.261v-.667c0-.066.02-.12.057-.16a.189.189 0 0 1 .145-.061c.058 0 .106.02.142.06a.231.231 0 0 1 .055.161v.667h.287v-.708a.497.497 0 0 0-.107-.334.363.363 0 0 0-.291-.126.437.437 0 0 0-.175.035.398.398 0 0 0-.136.095v-.104h-.266V3.29Z"
			/>
		</g>
		<g transform="translate(51 33)">
			<rect width="12" height="5" fill="url(#f)" rx="1" />
			<path
				fill="#fff"
				fill-rule="nonzero"
				d="M3.299 3.249c.157 0 .3-.034.427-.1a.742.742 0 0 0 .298-.279l-.254-.166a.54.54 0 0 1-.469.256.574.574 0 0 1-.272-.063.474.474 0 0 1-.257-.435.48.48 0 0 1 .257-.438.566.566 0 0 1 .272-.065.54.54 0 0 1 .47.256l.253-.166a.762.762 0 0 0-.3-.278.892.892 0 0 0-.423-.1.941.941 0 0 0-.44.103.816.816 0 0 0-.317.285.724.724 0 0 0-.117.4c0 .147.039.28.116.401.077.12.182.216.315.285a.93.93 0 0 0 .44.104zm1.335 0a.585.585 0 0 0 .213-.037.48.48 0 0 0 .162-.102v.111h.308v-.678c0-.159-.047-.28-.143-.364a.56.56 0 0 0-.383-.126.693.693 0 0 0-.536.236l.173.191a.654.654 0 0 1 .157-.118.366.366 0 0 1 .169-.039c.074 0 .13.018.17.054a.19.19 0 0 1 .058.147v.051h-.308a.576.576 0 0 0-.339.089.283.283 0 0 0-.125.243c0 .1.038.182.114.246.076.064.18.096.31.096zm.09-.229a.22.22 0 0 1-.128-.033.105.105 0 0 1-.048-.091c0-.039.014-.068.044-.087a.233.233 0 0 1 .127-.029h.263v.014c0 .066-.025.12-.074.163a.274.274 0 0 1-.184.063zm1.5.229.608-1.17h-.355l-.31.646-.311-.646h-.353l.609 1.17zm1.151 0a.585.585 0 0 0 .213-.037.48.48 0 0 0 .162-.102v.111h.308v-.678c0-.159-.047-.28-.143-.364a.56.56 0 0 0-.383-.126.693.693 0 0 0-.536.236l.173.191a.654.654 0 0 1 .157-.118.366.366 0 0 1 .169-.039c.074 0 .13.018.17.054a.19.19 0 0 1 .058.147v.051h-.308a.576.576 0 0 0-.339.089.283.283 0 0 0-.125.243c0 .1.038.182.114.246.076.064.18.096.31.096zm.09-.229a.22.22 0 0 1-.128-.033.105.105 0 0 1-.048-.091c0-.039.014-.068.044-.087a.233.233 0 0 1 .127-.029h.263v.014c0 .066-.025.12-.074.163a.274.274 0 0 1-.184.063zm1.251.201v-.667c0-.066.022-.12.066-.16a.24.24 0 0 1 .168-.061c.067 0 .122.02.165.06a.217.217 0 0 1 .063.161v.667h.333v-.708a.454.454 0 0 0-.125-.334.453.453 0 0 0-.337-.126.576.576 0 0 0-.203.035.468.468 0 0 0-.157.095v-.104H8.38V3.22z"
			/>
		</g>
	</g>
	<g fill="none" fill-rule="evenodd">
		<path
			fill="#aee6fe"
			d="M30.758 65.779c-.126-.263-.19-.478-.19-.645 0-.25.516-.682.516-.817 0-.136-.045-.557-.795-.557-.5 0-.314-.196.557-.589.686-.11 1.118-.224 1.294-.341.176-.118.3-.357.375-.718-.186-.15-.279-.314-.279-.495 0-.272.319-.598.569-.734.25-.135.477-.426.227-.833-.25-.407.057-.937.307-.937s.684.109 1.176.109c.491 0 .532.158.491.27-.04.11-.894.432-.991.467-.098.036-.251.312-.376.583-.125.272-.25.549-.25.82 0 .181.026.431.077.75.033.375.007.653-.076.834-.125.271-.108.577-.358.713s-1.142-.035-1.142.101c0 .063-.203.632-.565 1.254a6.266 6.266 0 0 1-.567.765zm6.882-21.073c.25-.543.25-.815 0-.815-.375 0-.819 1.034-.944 1.305-.125.272.16.845.284.98.043.047-.183.218-.284.425-.065.135-.03.271 0 .42.047.224.194.404.507.404.073 0 .198-.265.323-.265s.125.429 0 .836-.261.996.114 1.267c.375.272.061.383.375.492.313.11.913.115 1.038-.292s-.038-1.363-.038-1.363-.09-.27.16-.406c.25-.135.863-.118.738-.39-.125-.271-.229-.562-.413-.76-.184-.199-.232-.302-.607-.03-.375.27-.253.228-.378.228s-.125-.136-.125-.407c0-.272 0-.407-.25-.679-.167-.18-.334-.498-.5-.95zm-3.375-9.366v.27c0 .408-.125.815.25.815s.25-.271.375-.407c.125-.136.5-.543.125-.679-.25-.09-.5-.09-.75 0z"
		/>
		<path
			stroke="#aee6fe"
			stroke-width=".2"
			d="M34.133 59.526c.138-.203.275-.34.41-.413.204-.109.302-.293.39-.687a1.61 1.61 0 0 1 .332-.688c.308-.266.594-.437.856-.514.394-.115.498-.403.623-.675.044-.094.838-.302.979-.543.077-.132.417-.23-.172-.874-.145-.159-.616-.435-.756-.741-.106-.23.013-.365.254-.764.24-.4.414-.67.895-1.097.48-.426.716-.475.518-1.213-.197-.739-.224-.88-.277-1.092-.042-.165-.057-.783-.045-1.854 0-1.448-.125-2.217-.375-2.308-.375-.135-.375-1.629-.25-1.764.125-.136.164-.177.164-.584 0-.118.474-.39.506-.594.076-.5.23-.395.408-.492.25-.136-.204-.329-.046-.391.158-.063.484-.118.61-.389.054-.12.151-.288 0-.612-.06-.124-.16.185-.287-.063-.083-.166-.307-.572-.408-.867-.076-.223-.036-.46-.082-.637-.042-.159-.272-.002-.343-.132-.207-.375-.188-.216-.393-.45-.098-.112.016-.424-.04-.549-.054-.124-.357-.707-.458-.786-.09-.07-.383.612-.46.589-.256-.076-.673-.255-.628-.401.045-.148-.053-.283 0-.483.037-.14-.284-.087-.226-.215.035-.076.664-.912.571-1.09-.145-.276-.984-.056-1.138 0-.154.058-.375-.041-.465-.304"
		/>
		<path
			stroke="#aee6fe"
			stroke-linecap="round"
			stroke-width=".2"
			d="M38.668 40.66c.225-.225.379-.338.462-.338.04 0 .313.384.46.372.114-.009-.041-.326.064-.425.105-.098.273.336.43.268.068-.03.498.098.553-.069.05-.152.184-.958.207-1.009.077-.166.34-.339.479-.477a6.9 6.9 0 0 1 .465-.412c.602-.676.945-1.014 1.028-1.014.084 0 .312.044.685.13l1.103-1.093c.252-.2.641-.362 1.17-.49.792-.192 1.129 0 1.677 0 .366 0 .73-.085 1.092-.254"
		/>
	</g>
</svg>
