<svg xmlns="http://www.w3.org/2000/svg" width="152" height="152" fill="none">
	<path fill="#196433" fill-rule="evenodd" d="M31.454 105.023c-7.71 1.386-15.932 4.549-16.432 9.347-.48 4.631 6.91 12.166 14.414 16.42.843.478.855.028.576-.247-5.565-5.512-8.395-11.199-8.046-15.198.333-3.815 3.941-7.281 9.557-9.826.771-.35.503-.598-.069-.496zM85.514 95.967c19.122-4.088 15.069-9.714 5.276-10.94-.64-.079-.735.016-.189.257 8.143 3.592-.046 8.488-5.347 10.467-.492.183-.195.313.26.216z" clip-rule="evenodd" opacity=".146" />
	<path fill="#196433" fill-rule="evenodd" d="M112.388 98.944c3.543 1.437 4.814 3.264 4.814 5.275 0 3.667-8.337 11.52-17.541 18.717C90.22 130.317 79.846 137 75.015 137c-2.51 0-7.687-2.183-12.765-5.48-9.858-6.4-17.704-12.704-25.417-20.495-10.22-10.321-10.716-19.43 10.638-24.001 12.608-2.7 31.37-6.257 31.37-9.667 0-5.624-20.55-5.943-20.55-14.058 0-5.183 11.573-8.326 19.411-8.299.45.002.559.326.142.5-2.133.885-4.791 2.272-4.791 4.362 0 8.643 44.947 7.533 44.947 16.913 0 7.925-21.426 7.925-21.426 12.991 0 3.664 9.126 6.462 15.814 9.178zM35.605 88.99l-.028.01c-.208-.214-.21-.654-.17-1 .236.355.211.847.198.99zm12.035-3.316a1.295 1.295 0 01-.143.16.228.228 0 01-.064-.065c-.114-.163-.076-.4-.006-.603.096.172.167.367.213.508zM27.09 75.9c0-.126.088-.251.22-.271.31-.042.697-.113.973-.314.16-.119.111-.23.067-.23-1.35 0-1.407-1.99-1.326-2.76.015-.15.11-.21.22-.21.244 0 .507-.039.816-.066.175-.017.354-.041.223-.225-.53-.733-.862-1.61-1.061-2.677-.022-.127.028-.246.22-.272.274-.039.55-.11.819-.21.176-.064.177-.188.045-.334-.31-.376-.553-.774-.598-1.067-.022-.125.045-.25.178-.313a12.73 12.73 0 001.88-1.129c.177-.105.218-.253 0-.418-.562-.424-.93-.92-1.018-1.067-.098-.182-.09-.233.088-.334.177-.104.399-.272.642-.439.243-.166.177-.21.043-.418-.508-.794-.84-1.61-.84-2.091 0-.104.067-.188.177-.23.178-.063.487-.189.819-.356.22-.104.331-.167.11-.376-.574-.544-.708-1.36-.552-2.196.022-.125.11-.208.243-.208.22 0 .42 0 .619-.042.243-.041.154-.167.11-.25-.264-.482-.597-1.046-.597-1.464 0-.126.045-.25.243-.272.332-.043.642-.084.952-.188.243-.084.199-.209.132-.272-.154-.147-.265-.315-.42-.502a.255.255 0 01.11-.397c.332-.146.797-.377 1.194-.711.177-.147.045-.356-.065-.44a1.31 1.31 0 01-.464-.564c-.067-.146.022-.335.176-.355.243-.042.509-.188.862-.356.221-.104.11-.25.023-.313-.243-.167-.376-.419-.509-.67a.252.252 0 01.133-.356 3.748 3.748 0 001.304-.793c.11-.105.199-.314 0-.399-.332-.144-.62-.355-.752-.627-.066-.124 0-.313.177-.355.531-.126.951-.312 1.194-.586.155-.167.023-.271-.087-.333-.243-.147-.422-.272-.554-.44-.089-.104-.089-.272.022-.355 1.394-1.045 1.703-1.799 2.057-2.466.133-.254.35-.202.443-.084.64.793 1.393 1.316 2.188 1.86.155.105.177.313.023.419-.11.082-.201.142-.398.25-.062.033-.088.114.022.146.313.095.434.126.686.147.109.008.199.084.22.21.066.397-.044 1.044-.33 1.61-.068.124-.048.178.125.216.271.057.52.07.736.055.33-.025.376.209.31.355a5.047 5.047 0 01-.663 1.108c-.089.104-.134.209.066.25.376.086.774.106 1.062.064.132-.021.265.084.286.23a2.265 2.265 0 01-.264 1.485c-.089.166 0 .23.154.25a6.01 6.01 0 001.327.063c.2-.012.332.147.287.314-.154.606-.606 1.205-1.238 1.86-.127.132-.049.242.133.293.373.104.616.136.907.168.153.016.286.166.22.334-.088.25-.33.795-1.06 1.484-.133.126-.133.252.065.314.554.168.97.165 1.305.168.266.002.332.145.288.334-.111.46-.73 1.129-1.416 1.778-.11.104-.088.187.11.187.642 0 .952-.083 1.35-.25.216-.087.346-.044.376.188.089.71.332 2.446-.575 3.303-.11.106-.089.21.089.23.508.063.84-.042.928.083.2.272-.506 1.276-.639 1.505-.088.168.022.315.243.377.51.146 1.834-.208 1.524-.501-.376-.356-.708-.711-.818-1.005-.067-.166.028-.326.265-.354.242-.03.443-.042.753-.126.22-.063.06-.245 0-.314-.278-.316-.488-.607-.598-.835-.074-.154-.04-.32.152-.366.13-.033.326-.064.533-.094.088-.014.244-.106.089-.251a3.255 3.255 0 01-.774-1.15c-.08-.206-.028-.367.266-.335.198.021.419.021.73-.02.308-.043.243-.106.198-.19-.176-.334-.176-.605-.176-.982 0-.176.072-.238.264-.23.179.007.399 0 .62-.02.177-.022.11-.147 0-.315s-.198-.334-.31-.543c-.243-.48.285-.367.618-.419.1-.016.164-.042.113-.167-.178-.418-.266-.794-.222-1.003a.274.274 0 01.222-.23c.132-.022.289-.036.44-.083.117-.037.117-.09.008-.157-.251-.18-.294-.387-.095-.471.62-.272 1.084-.648 1.326-1.045.089-.147.333-.19.442 0 .222.397.51.794 1.262 1.505.11.105.132.271.022.376-.089.083-.187.151-.31.252-.134.11-.11.167 0 .271.156.147.405.25.686.335.256.077.221.25.133.397-.067.105-.185.218-.42.335-.168.082-.115.15 0 .25.175.155.597.46.818.565.132.063.199.209.11.355-.088.147-.175.231-.31.377-.113.122-.066.187.066.25.177.085.333.147.465.188.178.064.243.23.155.377a1.93 1.93 0 01-.309.335c-.112.105-.112.187.044.293.243.167.489.328.708.438.186.094.176.23.088.377-.066.105-.155.166-.222.272-.065.104-.006.157.09.188.198.064.377.09.574.125.183.033.225.129.225.24 0 .125-.137.491-.358.91-.066.125-.154.23.023.251.442.021.62.021.641.25.022.252.022.88-.376 1.444-.089.125-.101.22 0 .272.195.1.442.188.575.23.11.041.154.146.154.25 0 .376-.287 1.004-.574 1.401-.11.147-.067.25.11.356l.31.21c.173.113.154.229.088.333-.088.126-.259.437-.685.712-.148.094-.089.187.045.292.397.313.885.623 1.215.732.212.07.2.188.154.313-.065.189-.184.389-.375.669-.093.137-.067.23.089.271.154.042.287.084.442.105.17.024.22.147.199.272-.11.69-.255 1.216-.663 1.736-.094.119-.11.23.089.23l.463.021c.133 0 .243.104.265.23.089.565-.11 1.443-.795 1.799-.2.103-.106.2-.044.23.196.095.375.167.574.208.183.037.2.126.2.251 0 1.902-2.433 3.596-4.401 2.927-.244-.084-.286-.04-.398.041-.229.167-.442.252-.641.335-.14.067-.178.14-.178.293 0 1.422.076 3.447.193 5.153-.058-.043-.1-.067-.1-.067a.845.845 0 01.053.67 1.133 1.133 0 00-.32-.437c.074-.166.15-.288.15-.288-.102.062-.189.13-.262.201a1.56 1.56 0 00-.311-.162.69.69 0 01.253.223c-.227.246-.31.522-.342.685.04-.617-.453-.925-.453-.925.367.63.03 1.17.03 1.17-.355-.517-.148-1.247-.148-1.247-.578.343-.38 1.166-.38 1.166a2.097 2.097 0 00-.134-.32c.159-1.964.245-4.508.245-5.906 0-.126 0-.188-.177-.25-.11-.042-.221-.126-.33-.167-.29-.105-.82.053-1.262.062-1.41.028-1.44-.94-1.636-1.293-.084-.152-.224-.17-.288.026 0 0-.62 2.215-3.163 2.228-.463.003-.928-.083-1.349-.188-.264-.061-.242-.061-.42.042-.199.126-.398.209-.574.293-.243.105-.221.189-.221.335 0 2.301.165 5.024.369 7.194a3.374 3.374 0 00-.175.691c-.066-.504-.35-1.074-.35-1.074.257.514-.13 1.449-.233 1.678a.436.436 0 00-.04.015c-.316-.556.085-1.824.085-1.824-.689.707-.497 1.962-.497 1.962-.181-.742-.58-1.094-.9-1.26.03-.203.058-.338.058-.338-.071.089-.13.183-.18.28-.196-.08-.338-.09-.338-.09.11.05.203.123.28.208-.327.745-.17 1.599-.17 1.599-.113-.151-.217-.425-.307-.717.248-2.341.208-5.708.208-8.324 0-.126-.044-.188-.332-.313-.265-.106-.53-.273-.84-.46-.265-.168-.376-.105-.62-.021-1.724.543-3.537.063-4.842-1.276-.862-.879-1.438-1.966-1.438-2.99zm72.523-9.707c.004.3-.216.616-.216.616-.05-.169.09-.429.216-.616zm.965.365c-.084.075-.155.132-.155.132-.011-.117.058-.25.14-.377l.015.245zm4.993 1.254l-.022-.005a.954.954 0 00-.12-.287l.024-.33c.082.224.112.495.118.623zm.953.699a.901.901 0 00-.048.083c.015-.066.026-.128.031-.186.005.036.01.07.017.103zm-.149-.779a1.6 1.6 0 01-.006-.462c.12.038.209.128.275.241-.107.058-.197.14-.269.221zm.262.538h.001a1.57 1.57 0 00-.185.462.71.71 0 01-.091-.174c.081-.114.183-.212.275-.288zm.889.341l-.036.031a.557.557 0 01.005-.282c.021.115.029.209.031.252zm5.062 1.23a.357.357 0 01-.035-.01.862.862 0 00-.141-.284c.008-.126.017-.255.024-.387.105.215.141.518.152.681zm.936.669c-.032.051-.048.084-.048.084a1.6 1.6 0 00.031-.186c.005.034.01.069.017.102zm.013-.759c-.016.017-.04.03-.055.046a1.606 1.606 0 01-.006-.463l.002-.014c.005-.047.012-.078.019-.115l.008.12.002.028c.009.138.019.27.03.398zM95.179 55.96c.096-.006.225-.014.374-.027.072-.006.091-.058.006-.158-.245-.286-.399-.666-.446-1.102a.187.187 0 01.157-.203c.093-.014.193-.039.294-.074.124-.043.08-.123.022-.2a1.484 1.484 0 01-.217-.389.186.186 0 01.108-.236c.2-.075.462-.22.706-.389.187-.13.226-.211.046-.349a1.697 1.697 0 01-.353-.368c-.079-.114-.044-.2.057-.261.076-.048.163-.105.233-.154.1-.07 0-.223-.057-.343-.182-.287-.282-.588-.3-.758a.188.188 0 01.123-.195c.076-.027.183-.067.305-.12.16-.069.119-.14.057-.224a1.335 1.335 0 01-.235-.917.178.178 0 01.178-.166c.06-.002.132-.005.21-.014.087-.01.108-.065.01-.225a1.541 1.541 0 01-.194-.477c-.026-.132-.002-.198.16-.218.135-.018.264-.044.393-.082.08-.022.11-.063.054-.12a2.708 2.708 0 01-.14-.16c-.101-.126-.095-.208.066-.283.125-.06.267-.14.408-.233.106-.072.182-.153.066-.252a1.023 1.023 0 01-.164-.172c-.086-.117-.082-.238.1-.288.083-.022.18-.061.287-.115.087-.042.15-.09.066-.159a1.027 1.027 0 01-.204-.228c-.078-.119-.066-.205.08-.27a2.36 2.36 0 00.501-.33c.09-.071.095-.164-.01-.215a.718.718 0 01-.219-.165c-.113-.132-.112-.243.09-.3.183-.051.323-.114.43-.196.106-.08.065-.165 0-.205a.973.973 0 01-.173-.138c-.122-.12-.11-.172.01-.274.517-.437.701-.718.847-.97.075-.129.204-.18.318-.008.17.259.473.491.88.675.063.029.104.09.109.157a.187.187 0 01-.087.17c-.049.03-.075.082 0 .098.086.017.167.03.231.044.117.028.157.081.163.17a1.2 1.2 0 01-.108.543c-.079.188-.096.222.032.234.095.008.183.014.257.015.202.004.261.077.162.27a2.608 2.608 0 01-.216.346c-.094.124-.112.17.004.186.15.02.304.028.426.021.108.001.186.036.192.17.014.22-.017.422-.114.604-.057.11.358.099.398.19.092.208-.42.584-.232.742.255.213.711.182.813-.105.079-.218-.363-.751-.33-1.138.014-.175.092-.206.252-.143.239.093.501.343.995.35.132 0 .252-.04.106-.177-.404-.38-.723-.823-.812-1.127-.039-.136.007-.245.203-.236.213.011.393-.008.673-.091.25-.074.206-.18.123-.269-.411-.444-.574-.789-.634-.954-.062-.173-.021-.24.166-.25.151-.006.331-.042.535-.108.169-.054.14-.127.052-.219-.346-.352-.628-.815-.734-1.207-.052-.192.043-.246.197-.232.193.018.436.008.747-.03.144-.015.189-.076.112-.25a1.715 1.715 0 01-.126-.917c.01-.1.074-.164.197-.164.184-.001.419-.001.647-.038.101-.016.042-.157-.055-.306a3.941 3.941 0 01-.317-.6c-.075-.176-.001-.257.171-.257.147 0 .304-.01.472-.03.127-.013.135-.045.068-.185-.167-.367-.247-.774-.202-1.037.014-.082.046-.124.162-.155.087-.02.218-.04.392-.09.078-.023.058-.085-.01-.123a1.44 1.44 0 01-.216-.15c-.129-.11-.126-.172-.002-.28.46-.397.869-.775 1.366-1.263.118-.117.213-.121.298.048.232.461.461.918 1.263 1.665.073.069.079.181.014.257-.095.108-.2.219-.323.293-.101.062-.135.126-.04.226.16.167.395.294.721.385.151.043.197.092.117.258a.901.901 0 01-.482.426c-.103.042-.099.102.022.214.318.297.592.498.793.581.123.052.17.094.096.25a1.399 1.399 0 01-.316.428c-.084.078-.097.15.001.21.212.123.39.202.532.235.148.034.212.07.129.256-.063.139-.184.29-.352.44-.103.09-.089.137.067.258a4.1 4.1 0 00.693.444c.109.055.176.12.071.272a3.617 3.617 0 01-.208.277c-.127.154-.145.181.035.24.186.061.373.102.571.127.1.012.171.1.162.2-.023.268-.159.632-.346.929-.089.14-.09.186.079.208.13.018.248.023.336.027.091.002.166.07.18.16.054.39-.003.975-.324 1.436-.116.166-.138.191.034.278.21.105.393.182.509.227.072.027.12.097.119.173-.003.3-.199.91-.512 1.375-.1.147-.117.207.079.357.101.078.226.17.327.236.08.052.108.157.062.242-.054.1-.259.445-.63.715-.114.084-.135.17-.04.253.217.19.645.935.897 1.074.228.123-.058-.594-.098-.72-.06-.186.002-.224.161-.24.125-.012.61-.127.673-.14.163-.036.153-.117.107-.23a1.241 1.241 0 01-.088-.608c.025-.282.209-.158.565-.186.143-.01.094-.14.029-.255a2.957 2.957 0 01-.199-.358c-.066-.137-.046-.26.165-.264a3.25 3.25 0 00.231-.014c.151-.015.122-.117.068-.258a1.438 1.438 0 01-.109-.608c.012-.108.047-.15.158-.167a1.82 1.82 0 00.231-.05c.104-.03.043-.075-.029-.13-.122-.09-.136-.235.029-.316.418-.2.731-.457.904-.741.089-.15.226-.175.323.008.147.275.334.583.86 1.064.088.08.128.135.01.261a.937.937 0 01-.218.185c-.069.041-.114.084.01.193.112.098.264.175.464.235.119.035.217.114.1.283a.727.727 0 01-.289.235c-.106.048-.121.08.054.233.196.169.361.286.493.346.143.066.147.146.086.258a1.08 1.08 0 01-.219.273c-.084.073-.045.117.061.176.115.062.22.098.303.13.158.063.194.139.107.277-.126.201-.371.304-.155.465.161.117.32.218.46.287.125.063.165.14.068.276-.044.06-.089.117-.137.172-.072.085-.067.126.027.155.133.042.265.073.404.092.14.018.182.061.159.211a1.65 1.65 0 01-.247.623c-.16.243.08.175.279.175.091 0 .157.076.168.163.041.347-.042.72-.222.996-.1.154-.102.194-.006.24.146.072.275.125.364.158.075.03.123.105.118.185-.017.25-.174.655-.364.945-.12.182-.017.259.016.284.076.055.161.118.234.167a.185.185 0 01.058.25c-.051.085-.196.3-.438.477-.109.08-.116.143.023.255.268.213.585.389.809.5.117.058.135.135.107.227a1.473 1.473 0 01-.228.449c-.097.125-.114.162-.002.206.111.044.22.075.325.091a.185.185 0 01.155.2c-.056.606-.275.994-.446 1.212-.094.115-.08.167.062.182.125.012.233.017.317.023.09.006.162.078.172.168.039.408-.121.982-.565 1.282-.096.063-.118.112-.033.157.13.067.266.116.403.146.091.02.152.103.147.194-.035.515-.306 1.075-.723 1.496-.599.608-1.407.844-2.171.626-.193-.057-.298-.074-.434.015a2.742 2.742 0 01-.366.206c-.092.042-.143.086-.149.2-.058 1.026-.046 2.667.035 4.043a.836.836 0 00-.201.512c-.091-.403-.42-.533-.42-.533.353.283.181.908.081 1.186l-.045-.014c.036-.324 0-.591-.084-.777.038-.13.075-.219.075-.219a.773.773 0 00-.138.098c-.143-.236-.32-.334-.32-.334a.852.852 0 01.247.41.847.847 0 00-.148.294 1.17 1.17 0 00-.305-.462c.104-1.848.171-4.17.171-4.17.007-.154-.008-.205-.077-.235a2.657 2.657 0 01-.202-.103c-.184-.106-.242-.083-.421-.045a2.345 2.345 0 01-.515.058c-.368 0-1.59-.104-1.851-1.432-.022-.114.018-.195.171-.22.086-.016.18-.022.286-.05.085-.023.113-.075-.024-.177-.464-.35-.804-.896-.847-1.358a.774.774 0 01.048-.377c.057-.136.156-.152.264-.09.078.045.162.091.254.134.153.07.234-.027.096-.167a1.866 1.866 0 01-.219-.27c-.05-.074-.184-.209-.33-.151a2.613 2.613 0 01-1.834.018c-.148-.051-.233-.073-.325-.008a4.455 4.455 0 01-.254.168.296.296 0 00-.152.25c-.064 1.216-.111 4.303.086 6.562l-.009.002a.778.778 0 00-.473-.214c.021-.168.055-.284.055-.284-.165.154-.228.363-.241.573-.09-.403-.42-.533-.42-.533.355.285.18.916.08 1.191-.014-.004-.03-.008-.044-.01.039-.33.002-.598-.083-.785.039-.132.074-.22.074-.22a.682.682 0 00-.137.098.974.974 0 00-.321-.335.845.845 0 01.247.412.86.86 0 00-.148.292 1.111 1.111 0 00-.259-.408c.122-1.796.199-4.164.226-6.024.002-.128-.036-.226-.225-.29a2.835 2.835 0 01-.541-.26c-.161-.096-.282-.092-.54-.034-.209.047-.43.07-.653.07-.417 0-1.206-.09-1.796-.69-.111-.112-.153-.148-.289-.117-.363.082-.78.078-1.134-.006-.121-.031-.136-.06-.288.025-.067.036-.132.07-.196.1-.133.059-.142.144-.141.258.018 1.736.075 4.018.169 5.722-.249.24-.367.561-.367.561.1-.387.002-.648-.106-.804.065-.086.112-.14.112-.14a.95.95 0 00-.155.083c-.07-.086-.135-.126-.135-.126a.44.44 0 01.08.167c-.338.26-.478.692-.478.692-.044-.296.21-1.064.21-1.064-.364.198-.442 1.116-.442 1.116 0-.032-.013-.046-.015-.076.165-2.177.106-5.355.075-6.045-.008-.16-.02-.255-.233-.354a3.805 3.805 0 01-.25-.132c-.195-.116-.494-.027-.494-.027-.81.2-1.623-.052-2.22-.658-.374-.377-.607-.848-.644-1.289-.008-.093.024-.168.149-.197.165-.038.262-.07.389-.129.098-.046.035-.109-.035-.154-.432-.275-.59-.796-.554-1.164a.186.186 0 01.174-.166zM107.743 0c-13.82 0-30.73 8.684-42.616 20.734-.707.717-.744 1.57-.14 2.283 3.997 4.722 11.3 14.162 13.126 17.56.564 1.05.31 1.29-.45.6-12.537-11.394-25.6-22.782-43.226-22.782C15.557 18.395 0 32.768 0 56.798c0 38.532 37.632 73.739 63.259 89.93 10.898 6.885 11.982 7.151 23.539.061C115.73 129.045 152 88.139 152 49.562 152 24.417 135.195 0 107.743 0z" clip-rule="evenodd" opacity=".146" />
</svg>
